<svg width="16" height="14" viewBox="0 0 16 14" fill="none" xmlns="http://www.w3.org/2000/svg">
<path d="M11.2259 1.1153e-08C10.4999 0.000126646 9.78701 0.193479 9.16045 0.560202C8.5339 0.926924 8.01625 1.4538 7.66065 2.08673C7.30496 1.45365 6.78714 0.926677 6.1604 0.559945C5.53365 0.193213 4.82057 -5.3606e-05 4.09442 1.1153e-08C2.98228 0.060064 1.93611 0.546572 1.17354 1.35832C0.410965 2.17007 -0.00930413 3.24456 0.00015632 4.35827C0.00015632 10.0376 7.66065 13.9999 7.66065 13.9999C7.66065 13.9999 15.3211 10.0397 15.3211 4.35827C15.3306 3.24439 14.9102 2.16976 14.1474 1.35798C13.3846 0.546209 12.3382 0.0598117 11.2259 1.11531e-08V1.1153e-08Z" fill="white"/>
</svg>
