<svg width="23" height="23" viewBox="0 0 23 23" fill="none" xmlns="http://www.w3.org/2000/svg">
<path opacity="0.4" d="M19.6252 13.1441C18.7183 12.6191 18.4044 11.4868 18.9168 10.5886C19.085 10.2985 19.3296 10.0574 19.6252 9.89005C20.0747 9.63867 20.4029 9.22341 20.5374 8.73595C20.672 8.24848 20.6018 7.7289 20.3424 7.29191L19.704 6.17599C19.4459 5.73826 19.0195 5.41858 18.519 5.28753C18.0185 5.15647 17.4851 5.22482 17.0364 5.47747C16.5864 5.73053 16.0516 5.7991 15.5497 5.6681C15.0478 5.5371 14.6199 5.21727 14.3601 4.77896C14.1901 4.48812 14.0997 4.15957 14.0977 3.82489C14.1001 3.3196 13.8956 2.83424 13.5296 2.47614C13.1636 2.11805 12.6662 1.91674 12.1474 1.91675H10.8617C9.78312 1.91674 8.9074 2.76586 8.90259 3.81637C8.90625 4.49769 8.535 5.12875 7.92965 5.47019C7.32429 5.81163 6.57756 5.81116 5.97266 5.46896C5.51986 5.20602 4.97705 5.1328 4.46793 5.266C3.9588 5.3992 3.52672 5.72746 3.27013 6.17599L2.65791 7.24932C2.1228 8.16011 2.4432 9.32081 3.37508 9.84746C4.30903 10.3773 4.62603 11.5437 4.08351 12.4541C3.91758 12.7436 3.67231 12.9825 3.37508 13.1441C2.92566 13.3955 2.59744 13.8107 2.46288 14.2982C2.32833 14.7857 2.3985 15.3053 2.65791 15.7422L3.27013 16.8326C3.81409 17.7423 5.01164 18.051 5.94642 17.5226C6.88219 17.0064 8.07014 17.3175 8.61397 18.2211C8.78705 18.5107 8.87763 18.8401 8.87635 19.1752C8.87633 19.6842 9.08513 20.1722 9.45633 20.5305C9.82753 20.8889 10.3303 21.0879 10.853 21.0833H12.1386C13.2206 21.0833 14.0977 20.229 14.0977 19.1752C14.0907 18.667 14.2931 18.1772 14.6596 17.8154C15.0262 17.4536 15.5263 17.25 16.0481 17.25C16.3923 17.2479 16.7306 17.3362 17.0277 17.5056C17.9628 18.0268 19.1545 17.7147 19.6952 16.8071L20.3424 15.7167C20.8649 14.8123 20.5456 13.6669 19.6252 13.1441Z" fill="#9796A1"/>
<path d="M11.4998 13.8962C12.823 13.8962 13.8957 12.8235 13.8957 11.5003C13.8957 10.1771 12.823 9.10449 11.4998 9.10449C10.1767 9.10449 9.104 10.1771 9.104 11.5003C9.104 12.8235 10.1767 13.8962 11.4998 13.8962Z" fill="#9796A1"/>
</svg>
