<svg width="23" height="23" viewBox="0 0 23 23" fill="none" xmlns="http://www.w3.org/2000/svg">
<path opacity="0.4" d="M15.5164 1.91675H7.48458C4.57125 1.91675 2.875 3.62258 2.875 6.5455V16.4451C2.875 19.4159 4.57125 21.0834 7.48458 21.0834H15.5164C18.4767 21.0834 20.125 19.4159 20.125 16.4451V6.5455C20.125 3.62258 18.4767 1.91675 15.5164 1.91675Z" fill="#9796A1"/>
<path fill-rule="evenodd" clip-rule="evenodd" d="M7.74278 6.3728V6.38239C7.32974 6.38239 6.99528 6.7178 6.99528 7.12989C6.99528 7.54197 7.32974 7.87739 7.74278 7.87739H10.6072C11.0203 7.87739 11.3557 7.54197 11.3557 7.11934C11.3557 6.70822 11.0203 6.3728 10.6072 6.3728H7.74278ZM15.2561 12.2091H7.74278C7.32974 12.2091 6.99528 11.8737 6.99528 11.4616C6.99528 11.0495 7.32974 10.7131 7.74278 10.7131H15.2561C15.6682 10.7131 16.0036 11.0495 16.0036 11.4616C16.0036 11.8737 15.6682 12.2091 15.2561 12.2091ZM15.2563 16.5886H7.74293C7.45543 16.6269 7.17751 16.4832 7.02418 16.2436C6.87085 15.9944 6.87085 15.6782 7.02418 15.4386C7.17751 15.1894 7.45543 15.0552 7.74293 15.084H15.2563C15.6386 15.1223 15.9271 15.4482 15.9271 15.8411C15.9271 16.2235 15.6386 16.5502 15.2563 16.5886Z" fill="#9796A1"/>
</svg>
