<svg width="167" height="53" viewBox="0 0 167 53" fill="none" xmlns="http://www.w3.org/2000/svg">
<g filter="url(#filter0_d_814_6272)">
<rect width="167" height="53" rx="26.5" fill="#FE724C"/>
</g>
<rect x="6" y="6" width="40" height="40" rx="20" fill="white"/>
<path d="M33.2526 24.0968C33.1738 23.4166 32.8484 22.7855 32.3345 22.3158C31.8206 21.8461 31.1515 21.5682 30.446 21.5316V21.3316C30.4466 20.7627 30.3312 20.1994 30.1063 19.6738C29.8815 19.1482 29.5517 18.6708 29.1359 18.2691C28.7209 17.8662 28.2278 17.5467 27.6851 17.3289C27.1423 17.1111 26.5605 16.9993 25.973 17C24.7871 17.0004 23.6499 17.457 22.8114 18.2694C21.9728 19.0818 21.5015 20.1836 21.5011 21.3325V21.5347C20.8049 21.5826 20.148 21.8654 19.6447 22.3337C19.1414 22.8021 18.8235 23.4265 18.746 24.0984L18 30.682C18.0037 31.5648 18.3688 32.41 19.0152 33.0321C19.6617 33.6542 20.5367 34.0023 21.4479 34H30.5523C31.4635 34.0023 32.3383 33.6542 32.9848 33.0321C33.6312 32.41 33.9963 31.5648 34 30.682L33.2526 24.0968ZM22.8144 21.3396C22.8142 20.9378 22.8958 20.5398 23.0544 20.1686C23.2131 19.7973 23.4458 19.46 23.739 19.1758C24.0323 18.8916 24.3803 18.6661 24.7635 18.5123C25.1467 18.3585 25.5574 18.2795 25.9722 18.2795C26.3871 18.2791 26.7979 18.358 27.1812 18.5119C27.5644 18.6657 27.9127 18.8912 28.2058 19.1757C28.4996 19.4596 28.7325 19.7968 28.8914 20.1682C29.0503 20.5395 29.132 20.9376 29.1317 21.3396V21.5252H22.8144V21.3396ZM23.4374 25.8403C23.3332 25.8404 23.2299 25.8206 23.1336 25.782C23.0373 25.7434 22.9498 25.6868 22.8761 25.6154C22.8024 25.544 22.744 25.4592 22.7042 25.3659C22.6644 25.2726 22.6439 25.1726 22.644 25.0717C22.6439 24.9707 22.6644 24.8707 22.7042 24.7774C22.744 24.6841 22.8024 24.5993 22.8761 24.5279C22.9498 24.4565 23.0373 24.3999 23.1336 24.3614C23.2299 24.3228 23.3332 24.303 23.4374 24.3031C23.5418 24.3029 23.6452 24.3225 23.7416 24.3611C23.8381 24.3996 23.9258 24.4561 23.9997 24.5275C24.0736 24.5989 24.1323 24.6837 24.1724 24.777C24.2125 24.8704 24.2331 24.9706 24.2332 25.0717C24.2331 25.1728 24.2125 25.2729 24.1724 25.3662C24.1323 25.4596 24.0736 25.5444 23.9997 25.6158C23.9258 25.6871 23.8381 25.7437 23.7416 25.7822C23.6452 25.8207 23.5418 25.8405 23.4374 25.8403ZM28.5644 25.8403C28.46 25.8405 28.3566 25.8207 28.2602 25.7822C28.1637 25.7437 28.076 25.6871 28.0021 25.6158C27.9282 25.5444 27.8695 25.4596 27.8294 25.3662C27.7893 25.2729 27.7687 25.1728 27.7686 25.0717C27.7687 24.9706 27.7893 24.8704 27.8294 24.777C27.8695 24.6837 27.9282 24.5989 28.0021 24.5275C28.076 24.4561 28.1637 24.3996 28.2602 24.3611C28.3566 24.3225 28.46 24.3029 28.5644 24.3031C28.6686 24.303 28.7717 24.3228 28.868 24.3614C28.9643 24.3999 29.052 24.4565 29.1257 24.5279C29.1994 24.5993 29.2578 24.6841 29.2976 24.7774C29.3374 24.8707 29.3579 24.9707 29.3578 25.0717C29.3579 25.1726 29.3374 25.2726 29.2976 25.3659C29.2578 25.4592 29.1994 25.544 29.1257 25.6154C29.052 25.6868 28.9643 25.7434 28.868 25.782C28.7717 25.8206 28.6686 25.8404 28.5644 25.8403Z" fill="#FE724C"/>
<defs>
<filter id="filter0_d_814_6272" x="-30" y="-20" width="227" height="113" filterUnits="userSpaceOnUse" color-interpolation-filters="sRGB">
<feFlood flood-opacity="0" result="BackgroundImageFix"/>
<feColorMatrix in="SourceAlpha" type="matrix" values="0 0 0 0 0 0 0 0 0 0 0 0 0 0 0 0 0 0 127 0" result="hardAlpha"/>
<feOffset dy="10"/>
<feGaussianBlur stdDeviation="15"/>
<feColorMatrix type="matrix" values="0 0 0 0 0.996078 0 0 0 0 0.447059 0 0 0 0 0.298039 0 0 0 0.2 0"/>
<feBlend mode="normal" in2="BackgroundImageFix" result="effect1_dropShadow_814_6272"/>
<feBlend mode="normal" in="SourceGraphic" in2="effect1_dropShadow_814_6272" result="shape"/>
</filter>
</defs>
</svg>
