<svg width="30" height="31" viewBox="0 0 30 31" fill="none" xmlns="http://www.w3.org/2000/svg">
<path d="M15.2996 5.91635C17.4917 5.88262 19.6118 6.69932 21.2148 8.19506L25.5324 3.97305C22.7623 1.37739 19.0954 -0.0459299 15.2996 0.00113089C12.4634 0.000475546 9.68297 0.788801 7.26921 2.27795C4.85546 3.7671 2.90354 5.89835 1.63174 8.43337L6.57899 12.2744C7.18391 10.435 8.35096 8.83194 9.91555 7.69123C11.4801 6.55051 13.3633 5.9297 15.2996 5.91635Z" fill="#EA4335"/>
<path d="M29.9873 15.6403C30.0053 14.5886 29.8966 13.5386 29.6636 12.5128H15.3V18.1912H23.7322C23.5723 19.1867 23.2126 20.1397 22.6749 20.9926C22.1372 21.8456 21.4325 22.581 20.6032 23.1546L25.4313 26.8941C26.936 25.4414 28.1193 23.6892 28.9048 21.7508C29.6903 19.8124 30.0606 17.7307 29.9917 15.6403H29.9873Z" fill="#4285F4"/>
<path d="M6.59684 18.326C6.26233 17.352 6.08989 16.3298 6.08637 15.3C6.09247 14.2718 6.25873 13.2509 6.57918 12.274L1.63193 8.43297C0.558917 10.5633 0 12.9154 0 15.3007C0 17.686 0.558917 20.0381 1.63193 22.1685L6.59684 18.326Z" fill="#FBBC05"/>
<path d="M15.2997 30.5995C19.0264 30.7049 22.6519 29.3789 25.4311 26.8939L20.603 23.1544C19.0375 24.2039 17.1836 24.7387 15.2997 24.6843C13.3651 24.6728 11.4833 24.0524 9.92116 22.9112C8.35902 21.77 7.1959 20.1658 6.59679 18.3263L1.64955 22.1688C2.91791 24.7027 4.86664 26.8334 7.27748 28.3224C9.68833 29.8114 12.4661 30.5999 15.2997 30.5995Z" fill="#34A853"/>
</svg>
