<svg width="21" height="20" viewBox="0 0 21 20" fill="none" xmlns="http://www.w3.org/2000/svg">
<path d="M7.72185 16.2803L1.02544 16.2803" stroke="#FE724C" stroke-width="2" stroke-linecap="round"/>
<path d="M19.7751 16.2803L7.72181 16.2803" stroke="#FE724C" stroke-opacity="0.25" stroke-width="2" stroke-linecap="round"/>
<path d="M10.612 16.1538C10.612 14.4545 9.23439 13.0769 7.53506 13.0769C5.83572 13.0769 4.45813 14.4545 4.45813 16.1538C4.45813 17.8532 5.83572 19.2308 7.53506 19.2308C9.23439 19.2308 10.612 17.8532 10.612 16.1538Z" fill="#FE724C" stroke="#FE724C" stroke-width="1.5"/>
<path d="M13.0789 3.7197L19.7753 3.7197" stroke="#FE724C" stroke-width="2" stroke-linecap="round"/>
<path d="M1.02564 3.7197L13.079 3.7197" stroke="#FE724C" stroke-opacity="0.25" stroke-width="2" stroke-linecap="round"/>
<path d="M10.1883 3.84615C10.1883 5.54549 11.5659 6.92308 13.2652 6.92308C14.9646 6.92308 16.3421 5.54549 16.3421 3.84615C16.3421 2.14682 14.9646 0.769231 13.2652 0.769231C11.5659 0.769231 10.1883 2.14682 10.1883 3.84615Z" fill="#FE724C" stroke="#FE724C" stroke-width="1.5"/>
</svg>
