<svg width="23" height="23" viewBox="0 0 23 23" fill="none" xmlns="http://www.w3.org/2000/svg">
<path fill-rule="evenodd" clip-rule="evenodd" d="M8.17598 2.81449C10.2698 1.59789 12.8434 1.61915 14.9176 2.87019C16.9714 4.14671 18.2196 6.42492 18.208 8.87563C18.1602 11.3103 16.8217 13.5988 15.1487 15.368C14.183 16.3937 13.1028 17.3007 11.93 18.0705C11.8092 18.1403 11.6769 18.187 11.5396 18.2084C11.4075 18.2028 11.2788 18.1637 11.1651 18.0948C9.37466 16.9382 7.80387 15.4619 6.52832 13.7368C5.46098 12.2968 4.8546 10.5571 4.79151 8.7539C4.79012 6.29848 6.08215 4.03109 8.17598 2.81449ZM9.38594 9.76999C9.73815 10.6383 10.5695 11.2047 11.4918 11.2047C12.0961 11.209 12.6769 10.967 13.1049 10.5325C13.5329 10.0981 13.7725 9.50727 13.7704 8.89178C13.7736 7.95228 13.2205 7.10346 12.3693 6.74165C11.5181 6.37984 10.5368 6.57641 9.88347 7.23958C9.23015 7.90274 9.03374 8.90169 9.38594 9.76999Z" fill="#9796A1"/>
</svg>
