<svg width="20" height="20" viewBox="0 0 20 20" fill="none" xmlns="http://www.w3.org/2000/svg">
<rect width="19.9999" height="19.9999" rx="6.70833" fill="#9796A1"/>
<rect x="4.99981" y="2.00008" width="11" height="13.9999" fill="white"/>
<rect x="4.99981" y="2.00008" width="11" height="11" fill="white"/>
<path d="M9.99996 0C4.47915 0 0 4.47915 0 9.99996C0 15.5208 4.47915 19.9999 9.99996 19.9999C15.5208 19.9999 19.9999 15.5208 19.9999 9.99996C19.9999 4.47915 15.5208 0 9.99996 0ZM9.68746 15.8333C9.48144 15.8333 9.28004 15.7722 9.10874 15.6577C8.93744 15.5433 8.80393 15.3806 8.72509 15.1902C8.64625 14.9999 8.62562 14.7904 8.66581 14.5884C8.706 14.3863 8.80521 14.2007 8.95089 14.055C9.09657 13.9094 9.28218 13.8101 9.48424 13.77C9.6863 13.7298 9.89575 13.7504 10.0861 13.8292C10.2764 13.9081 10.4391 14.0416 10.5536 14.2129C10.668 14.3842 10.7291 14.5856 10.7291 14.7916C10.7291 15.0679 10.6194 15.3328 10.424 15.5282C10.2287 15.7235 9.96372 15.8333 9.68746 15.8333ZM11.4291 10.5208C10.5849 11.0875 10.4687 11.6067 10.4687 12.0833C10.4687 12.2767 10.3919 12.4621 10.2551 12.5989C10.1184 12.7356 9.93293 12.8124 9.73954 12.8124C9.54616 12.8124 9.36069 12.7356 9.22395 12.5989C9.0872 12.4621 9.01038 12.2767 9.01038 12.0833C9.01038 10.9421 9.53538 10.0349 10.6156 9.30934C11.6197 8.63538 12.1874 8.2083 12.1874 7.26924C12.1874 6.6307 11.8229 6.14581 11.0682 5.78695C10.8906 5.70258 10.4953 5.62029 10.0088 5.62602C9.3984 5.63383 8.92444 5.77966 8.55934 6.07341C7.8708 6.62758 7.81247 7.2307 7.81247 7.23955C7.80785 7.33531 7.78442 7.42922 7.74351 7.51591C7.7026 7.60261 7.64501 7.68041 7.57404 7.74485C7.50307 7.8093 7.42009 7.85913 7.32986 7.89151C7.23963 7.92389 7.1439 7.93818 7.04815 7.93356C6.95239 7.92894 6.85848 7.90551 6.77178 7.8646C6.68508 7.82369 6.60729 7.76611 6.54285 7.69513C6.4784 7.62416 6.42857 7.54119 6.39619 7.45095C6.36381 7.36072 6.34952 7.265 6.35414 7.16924C6.35987 7.04268 6.44789 5.90258 7.64424 4.94008C8.26455 4.44113 9.05361 4.18175 9.98798 4.1703C10.6494 4.16248 11.2708 4.27446 11.6921 4.47342C12.9531 5.06977 13.6458 6.06404 13.6458 7.26924C13.6458 9.03121 12.4682 9.82235 11.4291 10.5208Z" fill="#9796A1"/>
</svg>
