<svg width="15" height="15" viewBox="0 0 15 15" fill="none" xmlns="http://www.w3.org/2000/svg">
<path d="M14.6872 4.38707C14.5401 3.32842 14.0451 2.3487 13.28 1.60232C12.515 0.855936 11.5234 0.385306 10.4614 0.264415C8.45635 -0.0949488 6.40271 -0.0879448 4.4001 0.285048C1.78221 0.819963 0.642311 2.23101 0.200155 4.94166C0.0626643 5.78041 -0.00422015 6.62913 0.000206071 7.47907C0.00943387 8.51743 0.11605 9.55263 0.318672 10.5711C0.465743 11.6297 0.960762 12.6094 1.7258 13.3558C2.49084 14.1022 3.48245 14.5728 4.5444 14.6937C6.5495 15.0531 8.60312 15.0461 10.6057 14.6731C13.2236 14.1382 14.3635 12.7272 14.8057 10.0155C14.9412 9.17689 15.006 8.32849 14.9995 7.47907C14.9923 6.44091 14.8877 5.40571 14.6872 4.38707Z" fill="#FFC529"/>
</svg>
