<svg width="17" height="18" viewBox="0 0 17 18" fill="none" xmlns="http://www.w3.org/2000/svg">
<path d="M13.6604 3.66362L13.6604 3.66363L13.6584 3.66139C13.247 3.19645 12.5671 3.11993 12.0868 3.46561L12.0863 3.46594C11.5759 3.8323 11.4026 4.51235 11.6882 5.07782L11.6896 5.08061C11.753 5.20859 11.8556 5.33881 11.9781 5.46125L11.9799 5.46308C13.4523 6.9533 14.0435 8.77287 13.5203 10.88L13.5202 10.8802C13.0207 12.8889 11.7344 14.2236 9.84107 14.8239L9.84052 14.8241C7.99496 15.4065 6.25667 15.0345 4.76702 13.7823C3.48296 12.7057 2.82535 11.2566 2.80275 9.54993C2.78328 8.18806 3.24023 6.9838 4.07976 5.95601C4.1528 5.86602 4.23446 5.79309 4.29327 5.74102C4.29841 5.73647 4.30339 5.73206 4.30822 5.72779C4.36597 5.6767 4.4019 5.64492 4.43299 5.61061L4.43297 5.61059L4.43604 5.60728C4.77404 5.24243 4.86457 4.82881 4.71703 4.34356C4.56775 3.8652 4.25193 3.59359 3.77658 3.49715C3.42954 3.42749 3.11567 3.51421 2.80634 3.7626L2.8051 3.76359C2.18787 4.25533 1.75473 4.9216 1.35093 5.67545C0.672403 6.94335 0.366514 8.31215 0.415209 9.7684L0.415224 9.76889C0.472501 11.5447 1.03463 13.1219 2.09501 14.5064C3.10173 15.8177 4.35871 16.737 5.87955 17.2012L5.87989 17.2013C8.47537 17.9959 10.8739 17.581 13.0467 15.8799L13.0469 15.8797C14.4531 14.7802 15.3775 13.3192 15.8365 11.5341L15.837 11.5323C16.0095 10.874 16.0845 10.1962 16.0876 9.49916C16.0553 7.28029 15.2956 5.39245 13.8006 3.82278L14.0975 3.54003L13.8014 3.82363C13.7693 3.79008 13.7167 3.72886 13.6849 3.69197C13.6732 3.6783 13.6643 3.66797 13.6604 3.66362Z" fill="#FE724C" stroke="white" stroke-width="0.8"/>
<path d="M6.62983 7.11521C6.63283 7.97652 7.25987 8.69061 8.07593 8.77205C8.92198 8.85974 9.67804 8.28972 9.84605 7.43155C9.87005 7.3094 9.87305 7.18412 9.87305 7.05883M6.62983 7.11521C6.62383 4.79752 6.62383 3.98307 6.62983 1.66538C6.62983 1.04838 6.90885 0.569177 7.40988 0.255976C7.93192 -0.0728854 8.48996 -0.0854134 9.02399 0.221524C9.57003 0.534725 9.86405 1.03272 9.86705 1.69044M6.62983 7.11521L7.0398 7.11415C7.0398 7.11412 7.0398 7.11409 7.0398 7.11406C7.04225 7.7792 7.52345 8.3049 8.11664 8.36409L8.1182 8.36426C8.74561 8.42929 9.31497 8.01038 9.44371 7.35278L9.44377 7.3525C9.45944 7.27271 9.46305 7.18216 9.46307 7.0599M6.62983 7.11521L7.0398 7.11378L9.46307 7.0599M9.86705 1.69044C9.86896 2.42611 9.86844 2.85621 9.8678 3.37082C9.86744 3.66245 9.86705 3.98122 9.86705 4.39813V4.39818C9.86705 5.53506 9.86705 5.92193 9.87305 7.05883M9.86705 1.69044L9.45708 1.69231C9.45708 1.69218 9.45708 1.69206 9.45708 1.69193M9.86705 1.69044L9.45708 1.6915C9.45708 1.69165 9.45708 1.69179 9.45708 1.69193M9.87305 7.05883L9.46308 7.061C9.46308 7.06063 9.46308 7.06027 9.46307 7.0599M9.87305 7.05883H9.46307C9.46307 7.05919 9.46307 7.05954 9.46307 7.0599M9.46307 7.0599C9.45707 5.92279 9.45707 5.53499 9.45707 4.39813C9.45707 3.98016 9.45747 3.66108 9.45783 3.36941C9.45846 2.85549 9.45899 2.42666 9.45708 1.69193M9.46307 7.0599L7.0398 1.66644L7.03981 1.66538C7.0398 1.19284 7.24335 0.843566 7.6272 0.603618L7.62841 0.602861L7.6284 0.602859C8.0227 0.354467 8.41807 0.346136 8.8197 0.576973L8.82001 0.577151C9.2374 0.816564 9.45463 1.17864 9.45708 1.69193" fill="#FE724C" stroke="white" stroke-width="0.8"/>
</svg>
