<svg width="21" height="24" viewBox="0 0 21 24" fill="none" xmlns="http://www.w3.org/2000/svg">
<path d="M19.6489 11.966C19.1355 11.364 18.7211 10.6841 18.4212 9.95196C18.1957 9.38199 18.082 8.77407 18.0861 8.16113V7.93995C18.0861 5.83412 17.2496 3.81457 15.7606 2.32552C14.2715 0.836478 12.2518 0 10.146 0C8.03966 0 6.01967 0.836713 4.53025 2.32613C3.04083 3.81556 2.20399 5.83567 2.20399 7.94203V8.16516C2.20814 8.77467 2.09502 9.37919 1.87081 9.94598C1.57084 10.6801 1.15576 11.3617 0.641184 11.9651C0.336241 12.4742 0.134773 13.0385 0.0482312 13.6256C-0.0383101 14.2127 -0.00817554 14.8111 0.136899 15.3866C0.281974 15.9621 0.539094 16.5033 0.893632 16.9792C1.24817 17.4552 1.69315 17.8565 2.20301 18.1602C2.20874 18.1649 2.2152 18.1686 2.22207 18.1712L2.27605 18.2023C2.40794 18.2713 2.54428 18.3314 2.68422 18.3823C2.73824 18.4033 2.7993 18.4253 2.86534 18.4483C3.05539 18.5189 3.24956 18.5781 3.44669 18.6254C3.48471 18.6334 3.52164 18.6445 3.55966 18.6495H3.56772L3.79489 18.7035C3.95397 18.7395 4.126 18.7745 4.3131 18.8105L4.60524 18.8625C4.80534 18.8965 5.02646 18.9306 5.26158 18.9626C5.4967 18.9947 5.74783 19.0256 6.01697 19.0536C7.3884 19.1901 8.76587 19.2568 10.1441 19.2537C10.9445 19.2537 11.6668 19.2418 12.3222 19.2138C13.4678 19.1637 14.4003 19.0736 15.1556 18.9656C15.4788 18.9196 15.771 18.8656 16.0311 18.8185C16.7509 18.7287 17.4475 18.505 18.0851 18.1591C18.595 17.8557 19.04 17.4547 19.3946 16.979C19.7493 16.5033 20.0066 15.9623 20.1518 15.387C20.2971 14.8117 20.3274 14.2135 20.2411 13.6264C20.1548 13.0394 19.9536 12.4752 19.6489 11.966Z" fill="#D3D1D8"/>
<path d="M13.2484 20.9375C12.2589 20.5655 11.202 20.4066 10.1469 20.4712C9.09172 20.4067 8.03485 20.5656 7.04531 20.9375C6.88882 21.0299 6.7644 21.1681 6.68905 21.3334C6.61371 21.4988 6.59107 21.6833 6.62408 21.862C6.78988 22.3704 7.09212 22.8235 7.49794 23.1718C7.90376 23.5201 8.39747 23.7502 8.92518 23.837C9.72713 24.0543 10.5725 24.0543 11.3744 23.837C11.9022 23.7505 12.3961 23.5204 12.8019 23.1721C13.2078 22.8237 13.51 22.3706 13.6756 21.862C13.7082 21.6827 13.6847 21.4976 13.6082 21.3322C13.5318 21.1667 13.4061 21.0289 13.2484 20.9375Z" fill="#D3D1D8"/>
</svg>
