<svg width="18" height="13" viewBox="0 0 18 13" fill="none" xmlns="http://www.w3.org/2000/svg">
<path d="M11.8126 6.18761C11.8126 6.93354 11.5163 7.64892 10.9888 8.17637C10.4614 8.70382 9.746 9.00014 9.00007 9.00014C8.25414 9.00014 7.53877 8.70382 7.01132 8.17637C6.48387 7.64892 6.18755 6.93354 6.18755 6.18761C6.18755 5.44169 6.48387 4.72631 7.01132 4.19886C7.53877 3.67141 8.25414 3.37509 9.00007 3.37509C9.746 3.37509 10.4614 3.67141 10.9888 4.19886C11.5163 4.72631 11.8126 5.44169 11.8126 6.18761Z" fill="#D0D2D1"/>
<path fill-rule="evenodd" clip-rule="evenodd" d="M0 6.18755C0 6.18755 3.37503 0 9.00007 0C14.6251 0 18.0001 6.18755 18.0001 6.18755C18.0001 6.18755 14.6251 12.3751 9.00007 12.3751C3.37503 12.3751 0 6.18755 0 6.18755ZM9.00007 10.1251C10.0444 10.1251 11.0459 9.71023 11.7843 8.9718C12.5228 8.23337 12.9376 7.23184 12.9376 6.18755C12.9376 5.14325 12.5228 4.14172 11.7843 3.40329C11.0459 2.66486 10.0444 2.25002 9.00007 2.25002C7.95577 2.25002 6.95424 2.66486 6.21581 3.40329C5.47738 4.14172 5.06254 5.14325 5.06254 6.18755C5.06254 7.23184 5.47738 8.23337 6.21581 8.9718C6.95424 9.71023 7.95577 10.1251 9.00007 10.1251Z" fill="#D0D2D1"/>
</svg>
