<svg width="20" height="24" viewBox="0 0 20 24" fill="none" xmlns="http://www.w3.org/2000/svg">
<path d="M18.5361 4.7649C17.6425 3.30451 16.3878 2.09882 14.8929 1.26427C13.3979 0.429715 11.7133 -0.00568327 10.0012 6.40324e-05C8.28904 -0.0060741 6.60414 0.429185 5.10916 1.26378C3.61419 2.09837 2.35959 3.30424 1.4663 4.7649C0.73341 6.00427 0.262459 7.38075 0.0825419 8.80932C-0.097375 10.2379 0.0175538 11.6881 0.420255 13.0705C2.15389 19.0327 7.97567 22.9028 9.58411 23.8741C9.7095 23.9492 9.85294 23.9889 9.9991 23.9889C10.1453 23.9889 10.2887 23.9492 10.4141 23.8741C12.0235 22.8998 17.8444 19.0277 19.5781 13.0705C19.9815 11.6884 20.0971 10.2383 19.9179 8.80969C19.7387 7.38111 19.2684 6.00452 18.5361 4.7649ZM10.0012 13.6794C9.09536 13.6791 8.2267 13.3191 7.58618 12.6786C6.94565 12.0381 6.58563 11.1694 6.58536 10.2636C6.58563 9.35774 6.94565 8.48909 7.58618 7.84856C8.2267 7.20804 9.09536 6.84814 10.0012 6.84787C10.9072 6.84787 11.7761 7.20764 12.4168 7.84819C13.0576 8.48874 13.4176 9.35757 13.4179 10.2636C13.4176 11.1696 13.0576 12.0384 12.4168 12.679C11.7761 13.3195 10.9072 13.6794 10.0012 13.6794Z" fill="#D3D1D8"/>
</svg>
