<svg width="24" height="24" viewBox="0 0 24 24" fill="none" xmlns="http://www.w3.org/2000/svg">
<path d="M12 0C8.8174 0 5.76508 1.26433 3.51464 3.51477C1.2642 5.76521 0 8.81746 0 12.0001C0 15.1827 1.2642 18.2349 3.51464 20.4854C5.76508 22.7358 8.8174 24.0001 12 24.0001C15.1826 24.0001 18.2349 22.7358 20.4854 20.4854C22.7358 18.2349 24 15.1827 24 12.0001C24 8.81746 22.7358 5.76521 20.4854 3.51477C18.2349 1.26433 15.1826 0 12 0ZM16.4883 8.45014L14.7807 14.2634C14.7452 14.3848 14.6797 14.4953 14.5904 14.5848C14.5011 14.6743 14.3907 14.7399 14.2694 14.7756L8.45101 16.4883C8.31983 16.5269 8.18086 16.5294 8.04844 16.4952C7.91602 16.461 7.79532 16.3916 7.69925 16.2943C7.60317 16.1969 7.53524 16.0753 7.50278 15.9425C7.47032 15.8096 7.47452 15.6705 7.51489 15.5398L9.29223 9.78729C9.32848 9.66975 9.39283 9.56288 9.4798 9.47591C9.56677 9.38893 9.67389 9.32452 9.79142 9.28827L15.5398 7.51588C15.6703 7.4757 15.8091 7.47156 15.9417 7.50395C16.0743 7.53634 16.1956 7.60401 16.2928 7.6998C16.3901 7.7956 16.4596 7.91596 16.494 8.04807C16.5284 8.18017 16.5265 8.31909 16.4883 8.45014Z" fill="#FE724C"/>
</svg>
