<svg width="22" height="20" viewBox="0 0 22 20" fill="none" xmlns="http://www.w3.org/2000/svg">
<path d="M16.037 1.5933e-08C14.9999 0.000180923 13.9815 0.276399 13.0864 0.80029C12.1913 1.32418 11.4518 2.07687 10.9438 2.98105C10.4357 2.07665 9.69594 1.32383 8.80059 0.799924C7.90524 0.276019 6.88655 -7.65802e-05 5.84918 1.5933e-08C4.26041 0.0858059 2.76588 0.780819 1.67649 1.94046C0.587094 3.1001 -0.0132917 4.63509 0.000223315 6.22612C0.000223315 14.3395 10.9438 19.9999 10.9438 19.9999C10.9438 19.9999 21.8874 14.3424 21.8874 6.22612C21.9009 4.63486 21.3003 3.09966 20.2106 1.93998C19.1209 0.780301 17.626 0.0854455 16.037 1.5933e-08V1.5933e-08Z" fill="#D3D1D8"/>
</svg>
