<svg width="23" height="23" viewBox="0 0 23 23" fill="none" xmlns="http://www.w3.org/2000/svg">
<path fill-rule="evenodd" clip-rule="evenodd" d="M21.0798 8.02616H17.0215C15.133 8.02948 13.6031 9.52118 13.5997 11.3625C13.5971 13.2081 15.1287 14.7064 17.0215 14.7089H21.0832V15.0021C21.0832 18.2213 19.1316 20.125 15.8289 20.125H7.17158C3.8681 20.125 1.9165 18.2213 1.9165 15.0021V7.99045C1.9165 4.77118 3.8681 2.875 7.17158 2.875H15.8255C19.1282 2.875 21.0798 4.77118 21.0798 7.99045V8.02616ZM6.45852 8.01878H11.8635H11.8669H11.8737C12.2784 8.01712 12.6055 7.69569 12.6038 7.30034C12.6021 6.90582 12.2716 6.58689 11.8669 6.58855H6.45852C6.05644 6.59021 5.73019 6.90832 5.72848 7.30117C5.72678 7.69569 6.05389 8.01712 6.45852 8.01878Z" fill="#9796A1"/>
<path opacity="0.4" d="M15.3693 11.7841C15.5698 12.6957 16.369 13.337 17.2814 13.3203H20.3959C20.7755 13.3203 21.0835 13.0059 21.0835 12.6173V10.1912C21.0827 9.80339 20.7755 9.48814 20.3959 9.4873H17.2081C16.1702 9.49064 15.3319 10.3522 15.3335 11.4138C15.3335 11.5381 15.3457 11.6623 15.3693 11.7841Z" fill="#9796A1"/>
<path d="M17.2498 12.3625C17.7791 12.3625 18.2082 11.9334 18.2082 11.4041C18.2082 10.8749 17.7791 10.4458 17.2498 10.4458C16.7206 10.4458 16.2915 10.8749 16.2915 11.4041C16.2915 11.9334 16.7206 12.3625 17.2498 12.3625Z" fill="#9796A1"/>
</svg>
