<svg width="54" height="56" viewBox="0 0 54 56" fill="none" xmlns="http://www.w3.org/2000/svg">
<path d="M23.1645 7.41768L46.5804 30.8336C47.6624 31.9156 47.6624 33.6902 46.5804 34.7939C45.4983 35.876 43.7454 35.8976 42.6416 34.8156L42.62 34.7939C41.5379 33.7335 39.8066 33.7551 38.7246 34.8156L25.3935 48.1466C24.3115 49.2287 22.5585 49.2287 21.4764 48.1466C20.3944 47.0645 20.3944 45.3116 21.4764 44.2295L34.8724 30.8336C35.9112 29.7948 35.9112 28.0851 34.8724 27.0463L34.7426 26.9165C33.7038 25.8777 31.9941 25.8777 30.9553 26.9165L11.5864 46.2855C10.5043 47.3675 8.75135 47.3675 7.66929 46.2855C7.12825 45.7444 6.86856 45.0303 6.86856 44.3377C6.86856 43.6236 7.12825 42.931 7.66929 42.39L26.995 23.0643C27.536 22.5233 27.7957 21.8091 27.7957 21.1166C27.7957 20.4025 27.536 19.7099 26.995 19.1689C25.9129 18.0868 24.16 18.0868 23.0779 19.1689L13.7289 28.5179C12.6468 29.6 10.8938 29.6 9.81178 28.5179C9.27074 27.9769 9.01105 27.2627 9.01105 26.5702C9.01105 25.8561 9.29239 25.1635 9.81178 24.6225L19.2257 15.2085C20.2645 14.1698 20.2645 12.4601 19.2257 11.4213L19.1825 11.378C18.6414 10.837 18.3601 10.1228 18.3601 9.40867C18.3601 8.69451 18.6414 7.98035 19.1825 7.43932C20.3078 6.33561 22.0824 6.33561 23.1645 7.41768Z" fill="#FE724C"/>
<path d="M48.1586 5.85959C53.8935 11.5945 54.5644 20.4675 50.1712 26.9382C49.2623 28.28 47.3579 28.4748 46.1892 27.3278L26.6904 7.82895C25.5434 6.68196 25.7166 4.77753 27.08 3.84695C33.5507 -0.546231 42.4236 0.124648 48.1586 5.85959Z" fill="#FE724C"/>
<path d="M53.1949 4.69193C54.2682 3.61861 54.2682 1.87841 53.1949 0.805081C52.1216 -0.268243 50.3814 -0.268241 49.308 0.805083C48.2347 1.87841 48.2347 3.61861 49.308 4.69193C50.3814 5.76526 52.1216 5.76526 53.1949 4.69193Z" fill="#FE724C"/>
<rect x="0.675443" y="34.0348" width="6.56108" height="5.48313" rx="2.72114" transform="rotate(-45 0.675443 34.0348)" fill="#FE724C"/>
<rect x="-1.13541" y="51.2397" width="6.56108" height="5.48313" rx="2.72114" transform="rotate(-45 -1.13541 51.2397)" fill="#FE724C"/>
<rect x="12.4472" y="53.0508" width="6.56108" height="5.48313" rx="2.72114" transform="rotate(-45 12.4472 53.0508)" fill="#FE724C"/>
</svg>
